<svg xmlns="http://www.w3.org/2000/svg" width="1024" height="1024" viewBox="0 0 1024 1024">
<g>
<path d="M 217.75 798.26 C217.55,798.86 216.42,799.41 215.24,799.50 C214.06,799.59 213.32,799.29 213.60,798.83 C214.51,797.37 208.85,792.88 207.51,794.00 C206.66,794.70 205.74,794.32 204.40,792.75 L 202.50 790.50 L 204.75 792.40 C208.22,795.34 207.67,792.11 204.00,788.00 C202.35,786.15 201.00,784.05 201.00,783.32 C201.00,782.59 200.56,782.00 200.02,782.00 C199.48,782.00 198.76,780.91 198.43,779.58 C197.81,777.12 191.34,770.52 189.50,770.48 C188.95,770.47 188.64,769.63 188.82,768.63 C189.01,767.53 188.71,767.06 188.07,767.46 C187.11,768.05 186.56,766.79 186.88,764.75 C186.95,764.34 186.52,764.00 185.94,764.00 C185.36,764.00 185.16,763.55 185.50,763.00 C185.84,762.45 185.61,762.00 185.00,762.00 C184.39,762.00 184.16,761.55 184.50,761.00 C184.84,760.45 184.61,760.00 184.00,760.00 C183.39,760.00 183.16,759.55 183.50,759.00 C183.84,758.45 183.67,758.00 183.13,758.00 C182.20,758.00 180.24,753.58 181.10,753.43 C181.32,753.39 180.69,752.54 179.69,751.55 C178.70,750.56 178.12,749.13 178.41,748.37 C178.70,747.62 178.58,747.00 178.14,747.00 C177.11,747.00 174.92,739.94 175.60,738.84 C175.89,738.38 175.69,738.00 175.17,738.00 C173.93,738.00 168.61,718.40 166.07,704.50 C160.91,676.16 159.71,630.60 160.30,484.50 C160.79,361.66 161.19,348.97 165.48,320.61 C171.17,282.96 184.27,253.15 206.61,227.00 C233.92,195.04 270.94,175.24 319.00,166.90 C348.64,161.75 348.73,161.74 498.50,161.51 C572.47,161.39 629.79,161.55 629.79,161.86 C629.79,161.87 629.69,161.88 629.50,161.89 C624.55,162.23 619.52,163.06 618.32,163.75 C617.11,164.44 615.26,165.00 614.20,165.00 C611.89,165.00 606.77,168.81 607.49,169.99 C608.28,171.26 606.94,174.00 605.55,174.00 C603.77,174.00 601.51,176.77 598.16,183.03 C594.77,189.35 589.34,195.44 586.19,196.44 C583.50,197.29 575.06,205.25 574.85,207.13 C574.76,207.88 574.65,209.03 574.58,209.67 C574.45,211.05 566.96,219.21 563.79,221.43 C562.58,222.28 561.54,223.99 561.48,225.24 C561.28,229.60 558.92,236.00 557.52,236.00 C555.28,236.00 554.54,238.19 556.35,239.51 C558.94,241.41 558.30,243.63 554.50,245.87 C552.58,247.00 551.00,248.64 551.00,249.51 C551.00,250.78 550.30,250.96 547.44,250.42 C544.36,249.84 543.80,250.04 543.32,251.88 C543.02,253.04 542.43,254.00 542.02,254.00 C541.60,254.00 538.17,256.47 534.38,259.49 C530.60,262.52 526.71,264.99 525.74,264.99 C524.77,265.00 521.85,266.50 519.24,268.33 C516.63,270.16 510.92,273.57 506.54,275.92 C502.16,278.27 497.67,280.82 496.56,281.59 C495.46,282.37 493.82,283.00 492.93,283.00 C492.04,283.00 490.50,283.90 489.51,284.99 C487.89,286.78 476.05,293.34 465.50,298.28 C460.68,300.54 460.85,300.44 452.94,305.75 C449.45,308.09 446.28,310.00 445.88,310.00 C445.48,310.00 440.39,312.70 434.58,316.00 C428.77,319.30 423.80,322.00 423.55,322.00 C423.29,322.00 417.58,325.15 410.86,329.00 C404.14,332.85 398.45,336.00 398.22,336.00 C397.99,336.00 395.26,337.54 392.15,339.43 L 386.50 342.85 L 367.50 343.47 C346.51,344.15 316.57,347.41 311.66,349.55 L 308.50 350.92 L 312.00 351.10 C313.92,351.20 312.08,351.61 307.90,352.01 C294.27,353.31 277.84,357.75 267.03,363.03 C256.07,368.39 249.29,373.95 245.18,380.94 L 242.50 385.50 L 242.64 409.30 C242.71,422.39 243.05,433.38 243.39,433.72 C244.85,435.19 245.35,432.21 245.71,419.75 C246.18,403.90 246.29,403.25 249.31,399.79 C253.82,394.60 254.00,396.17 254.00,441.31 C254.00,477.14 253.79,483.13 252.58,482.67 C250.62,481.92 249.01,486.91 248.96,493.90 C248.91,499.68 248.33,502.89 245.30,514.00 L 243.53 520.50 L 242.85 515.50 C242.48,512.75 242.08,506.45 241.97,501.50 L 241.76 492.50 L 240.48 503.00 C239.78,508.77 238.94,519.04 238.63,525.80 C238.31,532.57 237.86,538.42 237.63,538.80 C237.39,539.19 236.70,551.20 236.08,565.50 C235.46,579.80 234.53,597.58 234.00,605.00 C233.00,619.29 232.64,626.38 230.80,669.50 C229.19,706.91 229.62,720.69 233.03,742.00 C234.43,750.70 234.78,751.88 236.82,754.77 C239.78,758.96 240.18,765.01 237.69,767.75 C236.56,768.99 234.82,773.24 233.82,777.19 C232.18,783.64 226.65,793.91 224.77,793.97 C224.37,793.99 222.57,793.10 220.77,792.00 C218.97,790.91 217.16,790.01 216.75,790.00 C215.59,790.00 215.86,795.80 217.05,796.53 C217.63,796.89 217.94,797.67 217.75,798.26 ZM 325.50 448.00 C325.16,448.55 323.78,449.00 322.44,449.00 C321.10,449.00 320.00,448.55 320.00,448.00 C320.00,447.45 318.94,447.00 317.63,447.00 C316.33,447.00 314.18,446.14 312.85,445.09 C311.51,444.05 306.07,441.74 300.75,439.98 C290.82,436.69 286.97,434.69 288.20,433.47 C288.58,433.09 292.18,433.49 296.20,434.36 C311.96,437.79 321.41,438.13 410.50,438.44 C459.45,438.62 514.94,438.81 533.81,438.88 C554.26,438.95 567.89,439.37 567.55,439.91 C567.24,440.42 567.55,441.06 568.24,441.34 C569.22,441.73 569.21,441.86 568.19,441.92 C567.47,441.96 567.16,442.45 567.50,443.00 C567.89,443.64 564.56,444.05 558.31,444.15 C552.91,444.23 546.03,444.37 543.00,444.44 C539.97,444.52 490.81,444.72 433.75,444.89 C372.90,445.08 330.24,445.58 330.56,446.10 C330.87,446.60 329.99,447.00 328.62,447.00 C327.24,447.00 325.84,447.45 325.50,448.00 ZM 623.26 599.28 C609.69,606.38 594.09,604.40 582.72,594.12 C578.04,589.90 573.13,581.05 575.67,581.42 C576.55,581.55 578.56,583.20 580.14,585.08 L 583.00 588.50 L 579.89 581.53 C576.26,573.40 573.86,570.94 572.85,574.32 C572.45,575.65 572.16,574.29 572.10,570.84 C572.00,565.11 572.62,564.38 575.86,566.41 C577.14,567.20 578.38,566.17 579.29,563.57 C579.47,563.06 587.47,566.53 597.06,571.29 C612.45,578.91 615.38,580.02 622.00,580.73 C628.92,581.47 629.48,581.70 629.27,583.74 C629.06,585.68 629.32,585.83 631.47,585.01 C633.51,584.24 633.80,584.35 633.28,585.71 C632.90,586.71 633.06,587.08 633.73,586.67 C634.31,586.31 635.05,586.68 635.36,587.51 C636.29,589.91 630.60,595.44 623.26,599.28 ZM 548.57 551.00 C547.09,555.26 545.65,562.21 545.23,567.09 C544.52,575.45 544.45,575.63 542.62,573.88 C540.94,572.27 540.79,570.97 541.26,561.79 C541.89,549.58 544.12,542.28 547.64,540.95 C549.68,540.17 549.99,539.49 549.66,536.52 C549.45,534.58 549.69,533.00 550.20,533.00 C550.70,533.00 550.87,532.60 550.57,532.11 C550.27,531.63 550.92,530.99 552.01,530.71 C553.11,530.42 553.99,529.58 553.98,528.84 C553.97,527.82 553.74,527.86 553.00,529.00 C552.47,529.83 552.02,530.09 552.02,529.59 C551.99,528.10 559.67,518.62 562.74,516.35 C568.10,512.39 575.84,508.93 576.60,510.16 C577.06,510.91 576.82,511.06 575.90,510.58 C575.13,510.18 575.29,510.50 576.26,511.30 C577.89,512.63 577.59,513.06 572.26,517.07 C566.31,521.54 557.05,530.84 557.02,532.37 C557.01,532.85 557.79,532.64 558.75,531.89 C560.17,530.79 560.15,530.95 558.60,532.77 C556.49,535.23 555.54,535.68 556.52,533.75 C557.46,531.89 554.02,536.20 552.83,538.37 C552.06,539.77 552.10,540.05 553.00,539.50 C553.71,539.06 553.58,539.74 552.69,541.13 C551.86,542.43 550.00,546.88 548.57,551.00 ZM 591.30 530.05 C581.58,532.54 580.04,532.54 583.16,530.09 C588.56,525.84 595.51,524.54 613.00,524.52 C667.35,524.45 689.00,524.99 689.00,526.43 C689.00,528.85 679.66,529.30 643.12,528.63 L 639.18 528.56 C606.71,527.97 601.07,527.87 595.69,528.98 C594.35,529.26 593.02,529.61 591.30,530.05 ZM 771.00 505.49 C763.74,506.54 732.51,507.14 733.84,506.21 C734.57,505.70 735.02,504.88 734.84,504.40 C734.35,503.13 739.39,502.26 748.00,502.11 C756.35,501.97 769.47,499.14 777.20,495.82 C782.04,493.74 782.32,493.72 783.57,495.43 C784.56,496.78 785.89,497.13 788.94,496.83 C791.17,496.62 793.00,496.78 793.00,497.18 C793.00,498.40 784.73,502.86 778.51,505.00 C772.56,507.04 768.90,507.61 772.50,505.92 C774.03,505.20 773.68,505.10 771.00,505.49 ZM 777.00 459.55 C777.00,464.31 775.51,465.44 774.08,461.75 C771.31,454.62 770.26,451.04 771.08,451.55 C772.70,452.55 772.05,446.59 770.24,443.94 C762.88,433.12 754.03,425.85 742.31,421.00 C738.01,419.22 734.35,417.64 734.17,417.47 C733.99,417.31 734.32,416.27 734.91,415.18 C736.22,412.72 737.98,413.05 747.69,417.63 C751.84,419.59 756.93,423.03 759.71,425.76 C769.38,435.26 777.00,450.15 777.00,459.55 ZM 336.80 356.95 C330.76,358.24 330.10,358.24 332.00,356.94 C333.07,356.21 331.36,356.00 326.00,356.21 C318.59,356.50 318.50,356.47 318.50,354.00 L 318.50 351.50 L 329.63 351.22 L 340.75 350.94 L 341.23 353.42 C341.66,355.68 341.28,355.99 336.80,356.95 ZM 706.14 526.79 C705.70,527.49 703.70,528.34 701.69,528.66 C698.84,529.13 697.89,528.89 697.39,527.58 C696.48,525.20 697.21,524.84 702.36,525.19 C705.79,525.42 706.74,525.82 706.14,526.79 ZM 576.23 610.75 C576.96,613.57 576.75,613.56 573.31,610.57 C571.43,608.95 570.83,607.81 571.50,607.14 C572.84,605.80 575.48,607.81 576.23,610.75 ZM 225.00 797.92 C225.00,799.15 224.35,800.00 223.43,800.00 C222.50,800.00 221.99,799.32 222.18,798.33 C222.66,795.82 225.00,795.48 225.00,797.92 ZM 589.54 617.93 C589.18,618.52 588.14,619.00 587.23,619.00 C585.70,619.00 585.70,618.87 587.26,617.31 C589.00,615.57 590.71,616.04 589.54,617.93 Z" fill="rgb(52,141,214)"/>
<path d="M 217.75 798.26 C217.94,797.67 217.63,796.89 217.05,796.53 C215.86,795.80 215.59,790.00 216.75,790.00 C217.16,790.01 218.97,790.91 220.77,792.00 C222.57,793.10 224.37,793.99 224.77,793.97 C226.65,793.91 232.18,783.64 233.82,777.19 C234.82,773.24 236.56,768.99 237.69,767.75 C240.18,765.01 239.78,758.96 236.82,754.77 C234.78,751.88 234.43,750.70 233.03,742.00 C229.62,720.69 229.19,706.91 230.80,669.50 C232.64,626.38 233.00,619.29 234.00,605.00 C234.53,597.58 235.46,579.80 236.08,565.50 C236.70,551.20 237.39,539.19 237.63,538.80 C237.86,538.42 238.31,532.57 238.63,525.80 C238.94,519.04 239.78,508.77 240.48,503.00 L 241.76 492.50 L 241.97 501.50 C242.08,506.45 242.48,512.75 242.85,515.50 L 243.53 520.50 L 245.30 514.00 C248.33,502.89 248.91,499.68 248.96,493.90 C249.01,486.91 250.62,481.92 252.58,482.67 C253.79,483.13 254.00,477.14 254.00,441.31 C254.00,396.17 253.82,394.60 249.31,399.79 C248.20,401.07 247.48,401.96 246.99,403.38 C247.69,398.25 248.57,395.00 249.42,395.00 C250.02,395.00 251.08,395.90 251.77,397.00 C252.45,398.10 253.63,399.00 254.39,399.00 C255.14,399.00 256.35,399.71 257.07,400.58 C259.02,402.94 268.92,407.68 278.78,410.97 C287.73,413.97 304.57,417.20 320.50,418.98 C326.22,419.62 401.29,419.99 526.50,420.01 C539.90,420.01 552.42,420.01 564.13,420.01 C719.69,420.01 731.27,420.01 740.68,424.52 C742.15,425.23 743.56,426.04 745.46,426.98 C754.52,431.47 763.43,439.43 768.40,447.49 C771.41,452.35 771.51,452.42 771.82,449.69 C771.89,449.11 771.84,448.40 771.70,447.66 C772.22,450.01 772.11,452.19 771.08,451.55 C770.26,451.04 771.31,454.62 774.08,461.75 C775.51,465.44 777.00,464.31 777.00,459.55 C777.00,450.15 769.38,435.26 759.71,425.76 C756.93,423.03 751.84,419.59 747.69,417.63 C737.98,413.05 736.22,412.72 734.91,415.18 C735.82,413.46 735.55,413.12 732.73,412.46 C730.95,412.04 643.55,411.56 538.50,411.38 C330.94,411.02 336.96,411.18 314.38,405.48 C295.23,400.65 282.00,391.68 282.00,383.53 C282.00,378.56 287.06,373.33 296.24,368.79 C303.64,365.13 322.35,359.03 326.38,358.96 C327.55,358.95 329.62,358.26 331.00,357.45 C331.71,357.02 332.18,356.72 332.29,356.51 C332.35,356.63 332.25,356.77 332.00,356.94 C330.10,358.24 330.76,358.24 336.80,356.95 C341.28,355.99 341.66,355.68 341.23,353.42 L 340.75 350.94 L 329.63 351.22 L 318.50 351.50 L 318.50 354.00 C318.50,355.09 318.52,355.70 319.17,356.02 C318.44,355.71 318.31,355.13 318.16,354.11 C317.83,351.73 317.78,351.72 308.16,352.31 C302.02,352.69 295.12,353.84 288.34,355.52 C294.91,353.85 301.69,352.60 307.90,352.01 C312.08,351.61 313.92,351.20 312.00,351.10 L 308.50 350.92 L 311.66 349.55 C316.57,347.41 346.51,344.15 367.50,343.47 L 386.47 342.85 C374.68,349.69 347.57,364.65 329.50,374.26 C313.61,382.71 306.00,387.01 306.00,387.56 C306.00,387.79 307.46,388.65 309.25,389.47 C311.04,390.29 313.24,391.50 314.14,392.15 C316.35,393.77 324.90,390.83 342.76,382.33 C360.91,373.68 365.22,371.83 364.49,373.01 C363.66,374.36 363.84,374.33 372.70,371.56 C376.99,370.23 382.30,368.84 384.50,368.48 C389.94,367.60 397.57,365.24 403.00,362.77 C408.19,360.41 449.50,345.21 488.00,331.51 C512.09,322.93 527.00,317.04 531.00,314.51 C532.74,313.41 543.48,309.41 550.00,307.42 C558.15,304.95 574.23,299.00 577.90,297.10 C579.88,296.08 583.97,294.68 587.00,293.99 C592.67,292.71 599.68,290.02 611.00,284.80 C625.62,278.05 624.60,278.85 627.00,272.34 C627.71,270.41 629.08,268.95 630.49,268.59 C631.77,268.27 633.51,267.74 634.35,267.42 C635.49,266.98 636.81,268.66 639.41,273.81 L 642.92 280.80 L 635.71 283.50 C631.75,284.99 620.85,288.82 611.50,292.02 C588.10,300.01 538.33,317.78 522.00,323.97 C514.58,326.78 505.86,330.02 502.64,331.16 C499.42,332.30 495.60,333.85 494.14,334.61 C492.69,335.37 490.97,335.99 490.33,335.99 C489.17,336.00 465.99,344.25 444.00,352.49 C422.99,360.36 416.58,362.72 407.50,365.96 C402.55,367.73 395.41,370.35 391.64,371.79 C387.86,373.23 383.44,374.31 381.82,374.18 C379.94,374.04 378.24,374.66 377.18,375.87 C376.25,376.92 371.67,379.15 367.00,380.84 C340.03,390.56 321.54,397.89 323.81,397.96 C324.53,397.98 324.89,398.37 324.60,398.83 C324.08,399.68 333.37,403.00 336.24,403.00 C337.11,403.00 342.47,401.46 348.16,399.59 C379.31,389.31 385.39,387.56 384.43,389.11 C384.13,389.60 384.41,390.00 385.06,390.00 C386.86,390.00 384.18,392.86 379.76,395.65 C375.94,398.06 375.01,400.27 377.23,401.64 C380.18,403.47 464.64,405.54 466.69,403.84 C467.61,403.07 468.38,403.07 469.28,403.81 C470.75,405.03 476.09,405.15 526.31,405.06 C546.55,405.03 562.90,404.64 562.62,404.20 C561.83,402.91 570.76,400.71 573.76,401.45 C580.68,403.15 581.85,403.14 584.58,401.35 C587.99,399.12 590.50,399.43 594.68,402.59 C597.75,404.91 598.48,405.00 614.50,405.00 C631.70,405.00 634.00,404.49 634.00,400.65 C634.00,396.16 634.53,396.00 649.46,396.00 C671.59,396.00 703.88,394.08 709.59,392.42 C718.27,389.91 718.41,389.69 718.99,377.05 C719.51,365.76 720.33,363.60 723.86,364.25 C724.73,364.41 726.92,371.23 729.99,383.36 C733.14,395.76 735.41,402.81 736.64,403.95 C737.66,404.90 740.92,406.21 743.88,406.85 C749.81,408.14 752.00,407.32 752.00,403.81 C752.00,401.97 748.86,387.36 743.47,364.06 C742.14,358.32 741.20,353.47 741.39,353.28 C742.47,352.20 760.09,362.46 759.73,363.97 C759.24,366.04 761.51,368.95 764.05,369.51 C765.87,369.91 767.01,370.80 767.02,371.83 C767.05,373.98 769.66,404.39 770.59,413.35 C771.16,418.90 771.78,420.65 773.89,422.60 C775.31,423.92 776.77,425.00 777.14,425.00 C777.50,425.00 778.69,426.83 779.80,429.06 L 781.81 433.11 L 782.51 428.92 C782.90,426.62 782.90,420.07 782.51,414.37 C781.82,404.25 781.86,404.00 783.93,404.00 C785.23,404.00 786.39,404.90 786.94,406.35 C787.43,407.64 788.16,420.68 788.56,435.34 L 789.29 461.98 L 794.48 465.99 C797.47,468.29 800.81,472.07 802.34,474.88 L 804.99 479.75 L 805.02 542.56 L 805.06 605.37 L 802.37 610.85 C800.89,613.87 798.23,617.95 796.46,619.92 C794.68,621.89 791.94,626.42 790.37,630.00 L 787.51 636.50 L 786.92 669.50 C786.38,699.74 786.14,703.13 784.10,709.98 C781.27,719.45 776.34,728.85 770.25,736.38 C767.64,739.61 764.93,743.30 764.22,744.57 C762.19,748.26 750.36,759.16 743.97,763.24 C740.75,765.29 734.60,768.37 730.31,770.08 C717.89,775.02 710.31,776.04 687.62,775.83 L 667.50 775.64 L 660.50 779.34 L 653.50 783.04 L 621.50 783.06 C603.90,783.06 586.35,782.65 582.50,782.14 C575.49,781.21 502.80,781.46 491.50,782.45 C484.03,783.11 482.35,783.78 467.38,792.12 C452.29,800.51 418.75,817.34 401.50,825.17 C387.86,831.36 380.09,836.02 378.09,839.23 C377.07,840.86 377.16,841.12 378.70,840.96 C381.79,840.64 383.14,840.96 382.56,841.90 C382.26,842.39 382.71,843.06 383.55,843.38 C384.40,843.71 384.97,844.54 384.83,845.24 C384.45,847.00 387.27,852.99 388.49,853.03 C389.05,853.04 390.81,854.39 392.42,856.03 C394.91,858.57 396.14,859.02 400.92,859.14 C406.37,859.28 406.41,859.30 402.50,860.00 L 398.50 860.72 L 403.42 860.86 C406.12,860.94 408.15,861.17 407.92,861.37 C406.86,862.30 379.95,862.67 366.00,861.95 C332.01,860.18 313.84,857.15 289.34,849.14 C275.07,844.48 257.94,836.76 247.97,830.49 C236.12,823.05 215.58,805.09 205.76,794.03 C206.43,794.45 206.98,794.43 207.51,794.00 C208.85,792.88 214.51,797.37 213.60,798.83 C213.32,799.29 214.06,799.59 215.24,799.50 C216.42,799.41 217.55,798.86 217.75,798.26 ZM 623.26 599.28 C630.15,595.68 635.58,590.59 635.46,587.99 C635.60,587.86 635.75,587.73 635.92,587.58 C641.47,582.55 642.71,564.09 638.10,555.15 C634.71,548.57 628.26,542.17 621.54,538.70 C616.19,535.94 614.53,535.58 607.00,535.56 C599.89,535.55 597.57,535.97 592.82,538.18 C585.39,541.64 578.64,547.97 575.58,554.36 C573.20,559.32 571.95,564.50 573.12,564.50 C573.44,564.50 574.51,565.17 575.51,566.00 C575.87,566.30 576.22,566.52 576.53,566.66 C576.31,566.63 576.09,566.55 575.86,566.41 C572.62,564.38 572.00,565.11 572.10,570.84 C572.16,574.29 572.45,575.65 572.85,574.32 C572.90,574.14 572.96,573.97 573.03,573.82 C573.01,574.16 573.00,574.57 573.00,575.06 C573.00,577.93 574.10,580.87 575.20,581.50 C573.90,582.41 578.41,590.24 582.72,594.12 C594.09,604.40 609.69,606.38 623.26,599.28 ZM 548.57 551.00 C550.00,546.88 551.86,542.43 552.69,541.13 C553.58,539.74 553.71,539.06 553.00,539.50 C552.10,540.05 552.06,539.77 552.83,538.37 C553.21,537.68 553.81,536.78 554.43,535.92 C554.16,536.35 553.92,536.77 553.71,537.17 C552.19,539.99 552.18,540.12 553.63,538.00 C554.24,537.11 555.11,536.06 556.15,534.91 C556.31,535.15 557.20,534.40 558.60,532.77 C559.45,531.76 559.85,531.26 559.78,531.20 C564.36,526.81 570.16,522.08 574.13,519.72 C577.63,517.65 584.10,514.73 588.50,513.24 L 596.50 510.54 L 679.50 509.90 C725.15,509.54 764.03,508.91 765.90,508.49 C767.50,508.13 769.71,507.35 771.21,506.64 C770.36,507.34 773.68,506.66 778.51,505.00 C784.73,502.86 793.00,498.40 793.00,497.18 C793.00,496.78 791.17,496.62 788.94,496.83 C785.89,497.13 784.56,496.78 783.57,495.43 C782.32,493.72 782.04,493.74 777.20,495.82 C769.47,499.14 756.35,501.97 748.00,502.11 C739.39,502.26 734.35,503.13 734.84,504.40 C735.02,504.88 734.57,505.70 733.84,506.21 C733.27,506.61 738.61,506.73 745.48,506.65 C738.53,506.76 733.06,506.69 733.50,506.32 C737.44,503.08 735.81,503.00 665.21,503.00 L 665.13 503.00 C601.84,503.00 592.25,503.00 583.80,506.11 C582.28,506.67 580.80,507.33 579.06,508.10 C577.14,508.96 576.05,509.49 575.60,509.93 C573.19,510.16 567.16,513.08 562.74,516.35 C559.67,518.62 551.99,528.10 552.02,529.59 C552.02,530.09 552.47,529.83 553.00,529.00 C553.74,527.86 553.97,527.82 553.98,528.84 C553.99,529.58 553.11,530.42 552.01,530.71 C550.92,530.99 550.27,531.63 550.57,532.11 C550.87,532.60 550.70,533.00 550.20,533.00 C549.69,533.00 549.45,534.58 549.66,536.52 C549.99,539.49 549.68,540.17 547.64,540.95 C544.12,542.28 541.89,549.58 541.26,561.79 C540.79,570.97 540.94,572.27 542.62,573.88 C544.45,575.63 544.52,575.45 545.23,567.09 C545.65,562.21 547.09,555.26 548.57,551.00 ZM 325.50 448.00 C325.84,447.45 327.24,447.00 328.62,447.00 C329.99,447.00 330.87,446.60 330.56,446.10 C330.24,445.58 372.90,445.08 433.75,444.89 C490.81,444.72 539.97,444.52 543.00,444.44 C546.03,444.37 552.91,444.23 558.31,444.15 C564.56,444.05 567.89,443.64 567.50,443.00 C567.16,442.45 567.47,441.96 568.19,441.92 C569.21,441.86 569.22,441.73 568.24,441.34 C567.55,441.06 567.24,440.42 567.55,439.91 C567.89,439.37 554.26,438.95 533.81,438.88 C514.94,438.81 459.45,438.62 410.50,438.44 C321.41,438.13 311.96,437.79 296.20,434.36 C292.18,433.49 288.58,433.09 288.20,433.47 C286.97,434.69 290.82,436.69 300.75,439.98 C306.07,441.74 311.51,444.05 312.85,445.09 C314.18,446.14 316.33,447.00 317.63,447.00 C318.94,447.00 320.00,447.45 320.00,448.00 C320.00,448.55 321.10,449.00 322.44,449.00 C323.78,449.00 325.16,448.55 325.50,448.00 ZM 591.30 530.05 C593.02,529.61 594.35,529.26 595.69,528.98 C601.07,527.87 606.71,527.97 639.18,528.56 L 639.18 528.56 L 643.12 528.63 C679.66,529.30 689.00,528.85 689.00,526.43 C689.00,524.99 667.35,524.45 613.00,524.52 C595.51,524.54 588.56,525.84 583.16,530.09 C580.04,532.54 581.58,532.54 591.30,530.05 ZM 203.45 791.31 C202.80,790.50 202.24,789.74 201.77,789.06 C195.49,779.86 191.58,774.05 189.30,770.43 C189.36,770.46 189.43,770.48 189.50,770.48 C191.34,770.52 197.81,777.12 198.43,779.58 C198.76,780.91 199.48,782.00 200.02,782.00 C200.56,782.00 201.00,782.59 201.00,783.32 C201.00,784.05 202.35,786.15 204.00,788.00 C207.67,792.11 208.22,795.34 204.75,792.40 ZM 668.14 271.84 C666.69,272.36 664.77,273.09 663.88,273.46 C662.68,273.95 662.12,273.43 661.75,271.46 C661.31,269.17 661.72,268.60 664.66,267.37 C668.48,265.77 669.52,266.06 670.27,268.92 C670.65,270.37 670.09,271.13 668.14,271.84 ZM 706.14 526.79 C706.74,525.82 705.79,525.42 702.36,525.19 C697.21,524.84 696.48,525.20 697.39,527.58 C697.89,528.89 698.84,529.13 701.69,528.66 C703.70,528.34 705.70,527.49 706.14,526.79 ZM 576.23 610.75 C575.48,607.81 572.84,605.80 571.50,607.14 C570.83,607.81 571.43,608.95 573.31,610.57 C576.75,613.56 576.96,613.57 576.23,610.75 ZM 225.00 797.92 C225.00,795.48 222.66,795.82 222.18,798.33 C221.99,799.32 222.50,800.00 223.43,800.00 C224.35,800.00 225.00,799.15 225.00,797.92 ZM 589.54 617.93 C590.71,616.04 589.00,615.57 587.26,617.31 C585.70,618.87 585.70,619.00 587.23,619.00 C588.14,619.00 589.18,618.52 589.54,617.93 ZM 574.10 515.67 C573.36,516.27 572.45,516.98 571.37,517.81 C566.28,521.71 560.83,527.24 557.08,532.12 C557.87,530.01 566.58,521.34 572.26,517.07 C572.96,516.55 573.57,516.08 574.10,515.67 ZM 188.81 769.66 C188.31,768.85 187.91,768.18 187.58,767.60 C187.73,767.61 187.89,767.57 188.07,767.46 C188.71,767.06 189.01,767.53 188.82,768.63 C188.75,769.01 188.75,769.36 188.81,769.66 ZM 581.81 564.27 C584.33,565.01 588.70,567.14 596.68,571.10 C590.41,568.00 584.87,565.47 581.81,564.27 ZM 575.05 573.29 C576.14,574.20 577.56,576.50 579.27,580.17 C577.64,577.06 575.86,574.05 575.05,573.29 ZM 181.10 753.43 C180.24,753.58 182.20,758.00 183.13,758.00 C182.31,758.00 180.80,754.92 180.67,753.00 C180.66,752.72 180.02,751.88 179.26,751.12 C178.51,750.36 178.12,749.13 178.41,748.37 C178.12,749.13 178.70,750.56 179.69,751.55 C180.69,752.54 181.32,753.39 181.10,753.43 ZM 575.98 581.51 L 575.98 581.51 C576.44,581.23 577.85,582.36 579.24,584.08 C578.04,582.83 576.77,581.82 575.98,581.51 ZM 761.75 433.68 C756.22,428.33 749.67,424.05 742.31,421.00 C749.85,424.13 756.21,428.25 761.75,433.68 ZM 577.79 566.20 C578.14,565.23 578.46,564.54 579.05,564.20 C578.67,565.12 578.24,565.79 577.79,566.20 ZM 387.21 342.42 L 392.15 339.43 C395.26,337.54 397.99,336.00 398.22,336.00 C398.45,336.00 404.14,332.85 410.86,329.00 C404.14,332.85 398.47,336.00 398.25,336.00 C398.04,336.00 394.40,338.10 390.18,340.66 C389.39,341.14 388.39,341.74 387.21,342.42 ZM 186.79 766.08 C186.51,765.43 186.45,765.08 186.56,764.90 C186.78,764.55 186.71,764.24 186.43,764.09 C186.74,764.22 186.93,764.47 186.88,764.75 C186.80,765.24 186.78,765.69 186.79,766.08 ZM 634.87 586.79 C634.53,586.51 634.10,586.44 633.73,586.67 C633.50,586.81 633.33,586.86 633.22,586.82 C633.37,586.84 633.63,586.73 634.00,586.50 C634.79,586.01 635.06,586.06 634.87,586.79 ZM 245.77 417.89 C245.75,418.49 245.73,419.11 245.71,419.75 C245.45,428.95 245.10,432.98 244.35,433.87 C245.07,433.01 245.40,429.24 245.66,420.77 C245.69,419.80 245.73,418.84 245.77,417.89 ZM 321.66 356.33 C322.72,356.33 324.12,356.28 326.00,356.21 C327.24,356.16 328.28,356.13 329.14,356.13 C328.29,356.15 327.25,356.19 326.00,356.23 C324.13,356.30 322.72,356.34 321.66,356.33 ZM 583.00 588.50 L 582.57 587.99 C582.64,587.96 582.65,587.85 582.62,587.66 ZM 250.81 373.81 C248.53,376.05 246.67,378.40 245.18,380.94 C246.68,378.40 248.53,376.04 250.81,373.81 ZM 770.46 444.28 C770.44,444.25 770.42,444.22 770.40,444.19 C770.12,443.76 770.18,443.85 770.24,443.94 C770.32,444.05 770.39,444.16 770.46,444.28 ZM 574.63 573.00 C574.70,573.04 574.76,573.08 574.83,573.13 C574.76,573.08 574.70,573.04 574.63,573.00 Z" fill="rgb(27,36,44)"/>
<path d="M 0.00 512.00 L 0.00 0.00 L 512.00 0.00 L 1024.00 0.00 L 1024.00 512.00 L 1024.00 1024.00 L 512.00 1024.00 L 0.00 1024.00 L 0.00 512.00 ZM 407.92 861.37 C408.15,861.17 406.12,860.94 403.42,860.86 L 398.50 860.72 L 402.50 860.00 C406.41,859.30 406.37,859.28 400.92,859.14 C396.14,859.02 394.91,858.57 392.42,856.03 C390.81,854.39 389.05,853.04 388.49,853.03 C387.27,852.99 384.45,847.00 384.83,845.24 C384.97,844.54 384.40,843.71 383.55,843.38 C382.71,843.06 382.26,842.39 382.56,841.90 C383.14,840.96 381.79,840.64 378.70,840.96 C377.16,841.12 377.07,840.86 378.09,839.23 C380.09,836.02 387.86,831.36 401.50,825.17 C418.75,817.34 452.29,800.51 467.38,792.12 C482.35,783.78 484.03,783.11 491.50,782.45 C502.80,781.46 575.49,781.21 582.50,782.14 C586.35,782.65 603.90,783.06 621.50,783.06 L 653.50 783.04 L 660.50 779.34 L 667.50 775.64 L 687.62 775.83 C710.31,776.04 717.89,775.02 730.31,770.08 C734.60,768.37 740.75,765.29 743.97,763.24 C750.36,759.16 762.19,748.26 764.22,744.57 C764.93,743.30 767.64,739.61 770.25,736.38 C776.34,728.85 781.27,719.45 784.10,709.98 C786.14,703.13 786.38,699.74 786.92,669.50 L 787.51 636.50 L 790.37 630.00 C791.94,626.42 794.68,621.89 796.46,619.92 C798.23,617.95 800.89,613.87 802.37,610.85 L 805.06 605.37 L 805.02 542.56 L 804.99 479.75 L 802.34 474.88 C800.81,472.07 797.47,468.29 794.48,465.99 L 789.29 461.98 L 788.56 435.34 C788.16,420.68 787.43,407.64 786.94,406.35 C786.39,404.90 785.23,404.00 783.93,404.00 C781.86,404.00 781.82,404.25 782.51,414.37 C782.90,420.07 782.90,426.62 782.51,428.92 L 781.81 433.11 L 779.80 429.06 C778.69,426.83 777.50,425.00 777.14,425.00 C776.77,425.00 775.31,423.92 773.89,422.60 C771.78,420.65 771.16,418.90 770.59,413.35 C769.66,404.39 767.05,373.98 767.02,371.83 C767.01,370.80 765.87,369.91 764.05,369.51 C761.51,368.95 759.24,366.04 759.73,363.97 C760.09,362.46 742.47,352.20 741.39,353.28 C741.20,353.47 742.14,358.32 743.47,364.06 C748.86,387.36 752.00,401.97 752.00,403.81 C752.00,407.32 749.81,408.14 743.88,406.85 C740.92,406.21 737.66,404.90 736.64,403.95 C735.41,402.81 733.14,395.76 729.99,383.36 C726.92,371.23 724.73,364.41 723.86,364.25 C720.33,363.60 719.51,365.76 718.99,377.05 C718.41,389.69 718.27,389.91 709.59,392.42 C703.88,394.08 671.59,396.00 649.46,396.00 C634.53,396.00 634.00,396.16 634.00,400.65 C634.00,404.49 631.70,405.00 614.50,405.00 C598.48,405.00 597.75,404.91 594.68,402.59 C590.50,399.43 587.99,399.12 584.58,401.35 C581.85,403.14 580.68,403.15 573.76,401.45 C570.76,400.71 561.83,402.91 562.62,404.20 C562.90,404.64 546.55,405.03 526.31,405.06 C476.09,405.15 470.75,405.03 469.28,403.81 C468.38,403.07 467.61,403.07 466.69,403.84 C464.64,405.54 380.18,403.47 377.23,401.64 C375.01,400.27 375.94,398.06 379.76,395.65 C384.18,392.86 386.86,390.00 385.06,390.00 C384.41,390.00 384.13,389.60 384.43,389.11 C385.39,387.56 379.31,389.31 348.16,399.59 C342.47,401.46 337.11,403.00 336.24,403.00 C333.37,403.00 324.08,399.68 324.60,398.83 C324.89,398.37 324.53,397.98 323.81,397.96 C321.54,397.89 340.03,390.56 367.00,380.84 C371.67,379.15 376.25,376.92 377.18,375.87 C378.24,374.66 379.94,374.04 381.82,374.18 C383.44,374.31 387.86,373.23 391.64,371.79 C395.41,370.35 402.55,367.73 407.50,365.96 C416.58,362.72 422.99,360.36 444.00,352.49 C465.99,344.25 489.17,336.00 490.33,335.99 C490.97,335.99 492.69,335.37 494.14,334.61 C495.60,333.85 499.42,332.30 502.64,331.16 C505.86,330.02 514.58,326.78 522.00,323.97 C538.33,317.78 588.10,300.01 611.50,292.02 C620.85,288.82 631.75,284.99 635.71,283.50 L 642.92 280.80 L 639.41 273.81 C636.81,268.66 635.49,266.98 634.35,267.42 C633.51,267.74 631.77,268.27 630.49,268.59 C629.08,268.95 627.71,270.41 627.00,272.34 C624.60,278.85 625.62,278.05 611.00,284.80 C599.68,290.02 592.67,292.71 587.00,293.99 C583.97,294.68 579.88,296.08 577.90,297.10 C574.23,299.00 558.15,304.95 550.00,307.42 C543.48,309.41 532.74,313.41 531.00,314.51 C527.00,317.04 512.09,322.93 488.00,331.51 C449.50,345.21 408.19,360.41 403.00,362.77 C397.57,365.24 389.94,367.60 384.50,368.48 C382.30,368.84 376.99,370.23 372.70,371.56 C363.84,374.33 363.66,374.36 364.49,373.01 C365.22,371.83 360.91,373.68 342.76,382.33 C324.90,390.83 316.35,393.77 314.14,392.15 C313.24,391.50 311.04,390.29 309.25,389.47 C307.46,388.65 306.00,387.79 306.00,387.56 C306.00,387.01 313.61,382.71 329.50,374.26 C349.88,363.43 381.74,345.79 390.18,340.66 C394.40,338.10 398.04,336.00 398.25,336.00 C398.47,336.00 404.14,332.85 410.86,329.00 C417.58,325.15 423.29,322.00 423.55,322.00 C423.80,322.00 428.77,319.30 434.58,316.00 C440.39,312.70 445.48,310.00 445.88,310.00 C446.28,310.00 449.45,308.09 452.94,305.75 C460.85,300.44 460.68,300.54 465.50,298.28 C476.05,293.34 487.89,286.78 489.51,284.99 C490.50,283.90 492.04,283.00 492.93,283.00 C493.82,283.00 495.46,282.37 496.56,281.59 C497.67,280.82 502.16,278.27 506.54,275.92 C510.92,273.57 516.63,270.16 519.24,268.33 C521.85,266.50 524.77,265.00 525.74,264.99 C526.71,264.99 530.60,262.52 534.38,259.49 C538.17,256.47 541.60,254.00 542.02,254.00 C542.43,254.00 543.02,253.04 543.32,251.88 C543.80,250.04 544.36,249.84 547.44,250.42 C550.30,250.96 551.00,250.78 551.00,249.51 C551.00,248.64 552.58,247.00 554.50,245.87 C558.30,243.63 558.94,241.41 556.35,239.51 C554.54,238.19 555.28,236.00 557.52,236.00 C558.92,236.00 561.28,229.60 561.48,225.24 C561.54,223.99 562.58,222.28 563.79,221.43 C566.96,219.21 574.45,211.05 574.58,209.67 C574.65,209.03 574.76,207.88 574.85,207.13 C575.06,205.25 583.50,197.29 586.19,196.44 C589.34,195.44 594.77,189.35 598.16,183.03 C601.51,176.77 603.77,174.00 605.55,174.00 C606.94,174.00 608.28,171.26 607.49,169.99 C606.77,168.81 611.89,165.00 614.20,165.00 C615.26,165.00 617.11,164.44 618.32,163.75 C619.52,163.06 624.55,162.23 629.50,161.89 C634.45,161.56 575.50,161.39 498.50,161.51 C348.73,161.74 348.64,161.75 319.00,166.90 C270.94,175.24 233.92,195.04 206.61,227.00 C184.27,253.15 171.17,282.96 165.48,320.61 C161.19,348.97 160.79,361.66 160.30,484.50 C159.71,630.60 160.91,676.16 166.07,704.50 C168.61,718.40 173.93,738.00 175.17,738.00 C175.69,738.00 175.89,738.38 175.60,738.84 C174.92,739.94 177.11,747.00 178.14,747.00 C178.58,747.00 178.70,747.62 178.41,748.37 C178.12,749.13 178.51,750.36 179.26,751.12 C180.02,751.88 180.66,752.72 180.67,753.00 C180.80,754.92 182.31,758.00 183.13,758.00 C183.67,758.00 183.84,758.45 183.50,759.00 C183.16,759.55 183.39,760.00 184.00,760.00 C184.61,760.00 184.84,760.45 184.50,761.00 C184.16,761.55 184.39,762.00 185.00,762.00 C185.61,762.00 185.84,762.45 185.50,763.00 C185.16,763.55 185.39,764.00 186.00,764.00 C186.61,764.00 186.87,764.41 186.56,764.90 C186.07,765.70 189.05,770.42 201.77,789.06 C208.32,798.65 234.10,821.78 247.97,830.49 C257.94,836.76 275.07,844.48 289.34,849.14 C313.84,857.15 332.01,860.18 366.00,861.95 C379.95,862.67 406.86,862.30 407.92,861.37 ZM 668.14 271.84 C670.09,271.13 670.65,270.37 670.27,268.92 C669.52,266.06 668.48,265.77 664.66,267.37 C661.72,268.60 661.31,269.17 661.75,271.46 C662.12,273.43 662.68,273.95 663.88,273.46 C664.77,273.09 666.69,272.36 668.14,271.84 ZM 634.63 587.53 C635.16,586.13 635.01,585.88 634.00,586.50 C633.03,587.10 632.83,586.88 633.28,585.71 C633.80,584.35 633.51,584.24 631.47,585.01 C629.32,585.83 629.06,585.68 629.27,583.74 C629.48,581.70 628.92,581.47 622.00,580.73 C615.39,580.02 612.45,578.91 597.14,571.33 C579.57,562.62 579.09,562.50 577.68,566.50 C577.48,567.07 576.55,566.86 575.51,566.00 C574.51,565.17 573.44,564.50 573.12,564.50 C571.95,564.50 573.20,559.32 575.58,554.36 C578.64,547.97 585.39,541.64 592.82,538.18 C597.57,535.97 599.89,535.55 607.00,535.56 C614.53,535.58 616.19,535.94 621.54,538.70 C628.26,542.17 634.71,548.57 638.10,555.15 C642.71,564.09 641.47,582.55 635.92,587.58 C633.98,589.33 633.94,589.33 634.63,587.53 ZM 579.55 584.48 C578.08,582.55 576.47,581.21 575.98,581.51 C574.70,582.30 573.00,578.63 573.00,575.06 C573.00,572.30 573.19,572.10 574.88,573.16 C576.41,574.11 583.57,588.00 582.54,588.00 C582.37,588.00 581.03,586.42 579.55,584.48 ZM 553.71 537.17 C556.73,531.57 564.39,523.16 571.37,517.81 C577.36,513.21 577.83,512.59 576.25,511.42 C574.67,510.26 574.96,509.93 579.06,508.10 C590.54,503.00 590.50,503.00 665.21,503.00 C735.81,503.00 737.44,503.08 733.50,506.32 C732.45,507.19 764.98,506.41 771.00,505.42 L 774.50 504.85 L 771.90 506.29 C770.46,507.08 767.76,508.07 765.90,508.49 C764.03,508.91 725.15,509.54 679.50,509.90 L 596.50 510.54 L 588.50 513.24 C584.10,514.73 577.63,517.65 574.13,519.72 C567.84,523.45 556.97,533.14 553.63,538.00 C552.18,540.12 552.19,539.99 553.71,537.17 ZM 768.40 447.49 C763.43,439.43 754.52,431.47 745.46,426.98 C730.47,419.55 745.65,420.04 526.50,420.01 C401.29,419.99 326.22,419.62 320.50,418.98 C304.57,417.20 287.73,413.97 278.78,410.97 C268.92,407.68 259.02,402.94 257.07,400.58 C256.35,399.71 255.14,399.00 254.39,399.00 C253.63,399.00 252.45,398.10 251.77,397.00 C251.08,395.90 250.02,395.00 249.42,395.00 C247.81,395.00 246.09,406.76 245.66,420.77 C245.30,432.37 244.82,435.15 243.39,433.72 C243.05,433.38 242.71,422.39 242.64,409.30 L 242.50 385.50 L 245.18 380.94 C249.18,374.14 255.77,368.64 266.18,363.41 C277.63,357.66 294.73,353.14 308.16,352.31 C317.78,351.72 317.83,351.73 318.16,354.11 C318.49,356.42 318.76,356.49 326.00,356.23 C333.03,355.98 333.34,356.05 331.00,357.45 C329.62,358.26 327.55,358.95 326.38,358.96 C322.35,359.03 303.64,365.13 296.24,368.79 C287.06,373.33 282.00,378.56 282.00,383.53 C282.00,391.68 295.23,400.65 314.38,405.48 C336.96,411.18 330.94,411.02 538.50,411.38 C643.55,411.56 730.95,412.04 732.73,412.46 C735.56,413.13 735.82,413.46 734.90,415.20 C734.31,416.28 733.99,417.31 734.17,417.47 C734.35,417.64 738.01,419.22 742.31,421.00 C754.00,425.84 763.64,433.80 770.40,444.19 C771.36,445.66 772.00,448.14 771.82,449.69 C771.51,452.42 771.41,452.35 768.40,447.49 Z" fill="rgb(93,213,54)"/>
<path d="M 0.00 512.00 L 0.00 0.00 L 512.00 0.00 L 1024.00 0.00 L 1024.00 512.00 L 1024.00 1024.00 L 512.00 1024.00 L 0.00 1024.00 L 0.00 512.00 ZM 673.00 860.71 C698.30,858.45 709.37,856.59 729.00,851.34 C746.18,846.74 767.83,837.02 780.33,828.29 C808.48,808.63 828.63,785.70 841.56,758.60 C849.19,742.60 852.58,731.99 856.92,710.50 C863.55,677.69 864.38,654.42 864.29,502.50 C864.21,366.28 863.60,345.21 858.96,318.53 C853.96,289.78 844.55,264.23 832.43,246.50 C800.75,200.16 758.58,174.48 700.30,166.07 C670.63,161.78 658.70,161.50 508.00,161.50 C357.11,161.50 352.47,161.62 324.00,166.10 C273.06,174.12 234.86,193.94 206.61,227.00 C184.27,253.15 171.17,282.96 165.48,320.61 C161.19,348.97 160.79,361.66 160.30,484.50 C159.71,630.60 160.91,676.16 166.07,704.50 C168.61,718.40 173.93,738.00 175.17,738.00 C175.69,738.00 175.89,738.38 175.60,738.84 C174.92,739.94 177.11,747.00 178.14,747.00 C178.58,747.00 178.70,747.62 178.41,748.37 C178.12,749.13 178.51,750.36 179.26,751.12 C180.02,751.88 180.66,752.72 180.67,753.00 C180.80,754.92 182.31,758.00 183.13,758.00 C183.67,758.00 183.84,758.45 183.50,759.00 C183.16,759.55 183.39,760.00 184.00,760.00 C184.61,760.00 184.84,760.45 184.50,761.00 C184.16,761.55 184.39,762.00 185.00,762.00 C185.61,762.00 185.84,762.45 185.50,763.00 C185.16,763.55 185.39,764.00 186.00,764.00 C186.61,764.00 186.87,764.41 186.56,764.90 C186.07,765.70 189.05,770.42 201.77,789.06 C208.32,798.65 234.10,821.78 247.97,830.49 C264.53,840.90 293.37,851.85 316.48,856.50 C345.65,862.36 360.30,862.80 518.50,862.52 C633.30,862.32 658.34,862.02 673.00,860.71 ZM 634.63 587.53 C635.16,586.13 635.01,585.88 634.00,586.50 C633.03,587.10 632.83,586.88 633.28,585.71 C633.80,584.35 633.51,584.24 631.47,585.01 C629.32,585.83 629.06,585.68 629.27,583.74 C629.48,581.70 628.92,581.47 622.00,580.73 C615.39,580.02 612.45,578.91 597.14,571.33 C579.57,562.62 579.09,562.50 577.68,566.50 C577.48,567.07 576.55,566.86 575.51,566.00 C574.51,565.17 573.44,564.50 573.12,564.50 C571.95,564.50 573.20,559.32 575.58,554.36 C578.64,547.97 585.39,541.64 592.82,538.18 C597.57,535.97 599.89,535.55 607.00,535.56 C614.53,535.58 616.19,535.94 621.54,538.70 C628.26,542.17 634.71,548.57 638.10,555.15 C642.71,564.09 641.47,582.55 635.92,587.58 C633.98,589.33 633.94,589.33 634.63,587.53 ZM 579.55 584.48 C578.08,582.55 576.47,581.21 575.98,581.51 C574.70,582.30 573.00,578.63 573.00,575.06 C573.00,572.30 573.19,572.10 574.88,573.16 C576.41,574.11 583.57,588.00 582.54,588.00 C582.37,588.00 581.03,586.42 579.55,584.48 ZM 553.71 537.17 C556.73,531.57 564.39,523.16 571.37,517.81 C577.36,513.21 577.83,512.59 576.25,511.42 C574.67,510.26 574.96,509.93 579.06,508.10 C590.54,503.00 590.50,503.00 665.21,503.00 C735.81,503.00 737.44,503.08 733.50,506.32 C732.45,507.19 764.98,506.41 771.00,505.42 L 774.50 504.85 L 771.90 506.29 C770.46,507.08 767.76,508.07 765.90,508.49 C764.03,508.91 725.15,509.54 679.50,509.90 L 596.50 510.54 L 588.50 513.24 C584.10,514.73 577.63,517.65 574.13,519.72 C567.84,523.45 556.97,533.14 553.63,538.00 C552.18,540.12 552.19,539.99 553.71,537.17 ZM 768.40 447.49 C763.43,439.43 754.52,431.47 745.46,426.98 C730.47,419.55 745.65,420.04 526.50,420.01 C401.29,419.99 326.22,419.62 320.50,418.98 C304.57,417.20 287.73,413.97 278.78,410.97 C268.92,407.68 259.02,402.94 257.07,400.58 C256.35,399.71 255.14,399.00 254.39,399.00 C253.63,399.00 252.45,398.10 251.77,397.00 C251.08,395.90 250.02,395.00 249.42,395.00 C247.81,395.00 246.09,406.76 245.66,420.77 C245.30,432.37 244.82,435.15 243.39,433.72 C243.05,433.38 242.71,422.39 242.64,409.30 L 242.50 385.50 L 245.18 380.94 C249.18,374.14 255.77,368.64 266.18,363.41 C277.63,357.66 294.73,353.14 308.16,352.31 C317.78,351.72 317.83,351.73 318.16,354.11 C318.49,356.42 318.76,356.49 326.00,356.23 C333.03,355.98 333.34,356.05 331.00,357.45 C329.62,358.26 327.55,358.95 326.38,358.96 C322.35,359.03 303.64,365.13 296.24,368.79 C287.06,373.33 282.00,378.56 282.00,383.53 C282.00,391.68 295.23,400.65 314.38,405.48 C336.96,411.18 330.94,411.02 538.50,411.38 C643.55,411.56 730.95,412.04 732.73,412.46 C735.56,413.13 735.82,413.46 734.90,415.20 C734.31,416.28 733.99,417.31 734.17,417.47 C734.35,417.64 738.01,419.22 742.31,421.00 C754.00,425.84 763.64,433.80 770.40,444.19 C771.36,445.66 772.00,448.14 771.82,449.69 C771.51,452.42 771.41,452.35 768.40,447.49 ZM 778.58 406.75 C778.30,404.96 777.62,396.47 777.05,387.87 C775.88,369.81 774.15,364.16 768.97,361.49 C763.92,358.87 762.39,354.24 758.59,330.06 C758.30,328.21 759.30,326.55 762.76,323.20 C767.21,318.87 767.42,318.79 772.81,319.23 C777.71,319.64 778.75,320.15 782.16,323.81 C785.18,327.05 786.00,328.71 786.00,331.63 C786.00,333.67 785.72,335.05 785.37,334.70 C785.02,334.35 783.88,334.53 782.83,335.09 C781.02,336.06 780.93,337.70 781.00,371.80 C781.04,391.44 781.05,408.06 781.04,408.75 C780.96,411.39 779.07,409.84 778.58,406.75 ZM 413.32 366.27 C412.59,365.77 415.84,364.18 421.82,362.10 C427.14,360.24 436.45,356.80 442.50,354.44 C448.55,352.09 455.30,349.83 457.50,349.44 C462.85,348.47 476.85,343.09 487.06,338.09 C492.45,335.45 496.60,334.07 498.92,334.14 C503.49,334.28 510.60,332.37 530.50,325.67 C539.30,322.70 549.88,319.27 554.00,318.03 C558.12,316.79 569.60,312.85 579.50,309.28 C589.40,305.70 601.55,301.52 606.50,299.98 C619.05,296.09 632.38,291.40 635.16,289.91 C636.45,289.22 641.55,287.44 646.50,285.94 C665.37,280.24 689.05,271.35 691.28,269.12 C691.90,268.50 692.95,268.00 693.63,268.00 C694.30,268.00 695.78,266.83 696.90,265.40 C699.12,262.57 708.98,258.06 713.00,258.03 C717.55,258.00 723.01,260.07 726.53,263.16 C729.63,265.88 731.25,270.00 729.23,270.00 C728.80,270.00 727.58,271.62 726.51,273.60 L 724.57 277.21 L 727.36 290.35 C734.39,323.56 739.00,346.21 739.00,347.54 C739.00,348.54 737.97,348.97 735.75,348.91 C733.96,348.87 731.37,349.12 730.00,349.48 C727.85,350.05 727.32,349.69 726.30,346.99 C725.65,345.26 724.20,343.60 723.09,343.31 C721.98,343.02 720.86,342.05 720.61,341.14 C720.35,340.24 718.28,332.75 715.99,324.50 C713.71,316.25 711.65,308.91 711.43,308.19 C711.13,307.23 709.83,307.05 706.60,307.54 C700.55,308.44 696.48,307.36 692.37,303.75 C688.81,300.63 685.00,294.31 685.00,291.54 C685.00,290.69 684.14,290.00 683.07,290.00 C682.01,290.00 672.00,292.96 660.82,296.58 C640.72,303.09 606.80,313.92 585.50,320.62 C579.45,322.52 569.33,325.83 563.00,327.97 C556.67,330.11 546.33,333.49 540.00,335.47 C533.67,337.45 516.58,342.93 502.00,347.65 C443.48,366.58 441.79,367.03 438.89,364.40 C437.62,363.25 436.23,362.96 434.29,363.44 C424.26,365.90 414.67,367.20 413.32,366.27 ZM 382.50 353.04 C380.78,352.34 381.27,351.86 385.93,349.66 C388.92,348.26 391.80,347.38 392.34,347.71 C392.87,348.04 393.01,347.83 392.65,347.25 C392.27,346.62 395.18,344.66 399.75,342.46 C404.01,340.42 409.78,337.25 412.57,335.44 C415.36,333.62 423.46,329.10 430.57,325.39 C437.68,321.68 444.85,317.84 446.50,316.87 C448.15,315.90 455.12,312.09 462.00,308.42 C475.60,301.14 489.62,293.46 492.00,292.00 C492.83,291.49 499.75,287.79 507.38,283.78 C515.01,279.78 525.59,274.21 530.88,271.41 C536.17,268.61 545.90,263.50 552.50,260.06 C579.78,245.83 582.82,244.09 598.90,233.42 C603.93,230.08 603.89,230.10 610.29,226.90 C613.29,225.40 615.30,223.66 615.65,222.25 C616.03,220.76 616.97,220.00 618.45,220.00 C619.68,220.00 621.55,219.04 622.60,217.86 C626.56,213.41 633.01,212.04 640.38,214.09 C648.10,216.23 650.73,221.66 647.62,229.06 C646.05,232.80 646.32,234.14 650.99,245.21 C652.78,249.45 654.01,253.54 653.72,254.29 C653.12,255.86 639.27,261.14 630.81,263.02 C621.19,265.17 613.32,261.55 606.96,252.05 L 605.43 249.75 L 600.59 251.96 C597.92,253.17 555.93,273.93 507.28,298.08 C458.62,322.24 418.20,342.00 417.46,342.00 C416.72,342.00 415.84,342.46 415.49,343.02 C414.57,344.50 409.37,346.47 402.25,348.04 C398.81,348.79 396.00,349.74 396.00,350.13 C396.00,353.37 387.69,355.16 382.50,353.04 Z" fill="rgb(252,253,251)"/>
</g>
</svg>